<svg width="657" height="354" viewBox="0 0 657 354" fill="none" xmlns="http://www.w3.org/2000/svg">
<path d="M1.1164 32.7758C12.7722 -6.82772 514.903 -14.8396 613.278 32.7758C711.653 80.3911 613.278 354 613.278 354L72.916 337.595C72.916 337.595 -10.5394 72.3794 1.1164 32.7758Z" fill="white"/>
<path d="M1.59606 32.917C2.26165 30.6555 4.73275 28.3859 9.05912 26.1713C13.3543 23.9728 19.3539 21.8904 26.8578 19.9362C41.8611 16.0289 62.7883 12.6563 87.9051 9.86912C138.133 4.29528 205.048 1.06937 274.681 0.568697C344.313 0.0680306 416.65 2.29262 477.721 7.61691C508.257 10.2791 535.97 13.7156 559.117 17.9723C582.274 22.2308 600.826 27.304 613.06 33.2258C637.431 45.0219 649.683 70.8425 654.285 103.125C658.885 135.398 655.82 174.004 649.675 211.162C643.531 248.313 634.314 283.981 626.632 310.365C622.791 323.556 619.334 334.424 616.838 341.994C615.59 345.779 614.582 348.739 613.886 350.752C613.538 351.759 613.268 352.529 613.086 353.047C613.023 353.224 612.971 353.372 612.929 353.489L73.2866 337.106L73.1541 336.684C72.9966 336.181 72.7631 335.434 72.4589 334.458C71.8507 332.507 70.96 329.639 69.8306 325.975C67.5717 318.646 64.3576 308.133 60.5371 295.393C52.8961 269.913 42.8297 235.527 33.1277 199.906C23.4253 164.282 14.0894 127.429 7.90779 97.0121C4.81682 81.8026 2.5164 68.2113 1.35229 57.1916C0.185474 46.1463 0.170192 37.7618 1.59606 32.917Z" stroke="black" stroke-opacity="0.5"/>
</svg>
